<svg width="32" height="32" fill="none" xmlns="http://www.w3.org/2000/svg"><path d="M1 0a1 1 0 0 0-1 1v9a1 1 0 1 0 2 0V2h8a1 1 0 1 0 0-2H1Zm15.707 15.293-15-15L.293 1.707l15 15 1.414-1.414Z" fill="#000"/><path d="M32 1a1 1 0 0 0-1-1h-9a1 1 0 1 0 0 2h8v8a1 1 0 1 0 2 0V1ZM16.707 16.707l15-15L30.293.293l-15 15 1.414 1.414Z" fill="#000"/><path d="M0 31a1 1 0 0 0 1 1h9a1 1 0 1 0 0-2H2v-8a1 1 0 1 0-2 0v9Zm15.293-15.707-15 15 1.414 1.414 15-15-1.414-1.414Z" fill="#000"/><path d="M31 32a1 1 0 0 0 1-1v-9a1 1 0 1 0-2 0v8h-8a1 1 0 1 0 0 2h9ZM15.293 16.707l15 15 1.414-1.414-15-15-1.414 1.414Z" fill="#000"/></svg>